<svg xmlns="http://www.w3.org/2000/svg" viewBox="0 0 207.6 207.6"><circle cx="103.8" cy="103.8" r="45.9"/><path d="M104 157a53 53 0 1 1 0-107 53 53 0 0 1 0 107zm0-92a38 38 0 1 0 0 77 38 38 0 0 0 0-77zM104 39c-4 0-8-3-8-7V8a8 8 0 0 1 15 0v24c0 4-3 7-7 7zM104 208c-4 0-8-4-8-8v-24a8 8 0 0 1 15 0v24c0 4-3 8-7 8zM200 111h-24a8 8 0 0 1 0-15h24a8 8 0 0 1 0 15zM32 111H8a8 8 0 0 1 0-15h24a8 8 0 0 1 0 15zM155 60a7 7 0 0 1-6-12l18-18a7 7 0 1 1 10 11l-17 17c-1 2-3 2-5 2zM36 179a7 7 0 0 1-6-12l18-18a7 7 0 1 1 10 11l-17 17c-1 2-3 2-5 2zM172 179c-2 0-4 0-5-2l-18-17a7 7 0 1 1 11-11l17 18a7 7 0 0 1-5 12zM53 60c-2 0-4 0-5-2L30 41a7 7 0 1 1 11-11l17 18a7 7 0 0 1-5 12z"/></svg>
